<svg width="920" height="489" viewBox="0 0 920 489" fill="none" xmlns="http://www.w3.org/2000/svg">
<rect width="920" height="489" fill="#E5E5E5"/>
<g id="3156701 1">
<g clip-path="url(#clip0)">
<g id="g10">
<g id="g12">
<g id="tree2">
<path id="path14" d="M802.479 -0.00519694L746.119 113.687L762.947 114.325L715.191 204.668H740.275L701.145 284.932H919.864L871.707 204.668L894.783 203.664L848.629 113.368L865.687 112.364L802.479 -0.00519694" fill="#F3F2F1"/>
<path id="path16" d="M812.008 131.879C812.332 131.881 811.888 200.524 811.019 285.176C810.149 369.858 808.756 448.029 808.755 447.706C808.649 429.596 808.98 369.846 809.849 285.165C810.72 200.512 811.685 131.875 812.008 131.879Z" fill="#DADBD8"/>
<path id="path18" d="M838.813 161.107C839.069 161.304 833.452 169.019 826.267 178.337C819.079 187.66 813.048 195.055 812.792 194.857C812.536 194.66 818.155 186.947 825.34 177.624C832.525 168.305 838.559 160.909 838.813 161.107" fill="#DADBD8"/>
<path id="path20" d="M811.477 192.439C811.279 192.693 805.727 188.699 799.076 183.516C792.425 178.332 787.196 173.924 787.395 173.671C787.592 173.416 793.144 177.411 799.795 182.593C806.445 187.776 811.675 192.185 811.477 192.439Z" fill="#DADBD8"/>
<path id="path22" d="M809.98 248.208C809.867 248.329 808.309 247.056 805.831 244.968C803.351 242.88 799.935 239.992 796.105 236.869C792.273 233.748 788.753 230.984 786.208 228.979C783.663 226.971 782.103 225.703 782.197 225.567C782.288 225.44 784.019 226.469 786.699 228.312C789.379 230.156 792.995 232.828 796.843 235.963C800.689 239.1 804.037 242.101 806.383 244.353C808.729 246.607 810.087 248.095 809.98 248.208" fill="#DADBD8"/>
<path id="path24" d="M838.848 213.735C839.1 213.937 832.943 222.017 825.097 231.78C817.249 241.547 810.685 249.296 810.435 249.095C810.183 248.893 816.34 240.815 824.187 231.048C832.031 221.285 838.596 213.533 838.848 213.735Z" fill="#DADBD8"/>
</g>
<g id="Tree1">
<path id="path26" d="M162.308 -0.00524728L110.958 103.579L126.291 104.161L82.7812 186.472H105.634L69.9839 259.6H269.257L225.381 186.472L246.405 185.557L204.357 103.289L219.897 102.373L162.308 -0.00524728" fill="#F3F2F1"/>
<path id="path28" d="M170.991 120.153C171.285 120.156 170.881 182.696 170.089 259.823C169.296 336.975 168.416 424.407 168.121 424.403C167.828 424.4 168.232 336.964 169.024 259.812C169.817 182.685 170.697 120.151 170.991 120.153Z" fill="#DADBD8"/>
<path id="path30" d="M195.413 146.784C195.647 146.963 190.527 153.992 183.981 162.481C177.433 170.976 171.937 177.712 171.704 177.533C171.472 177.353 176.591 170.325 183.139 161.832C189.684 153.341 195.18 146.604 195.413 146.784" fill="#DADBD8"/>
<path id="path32" d="M170.507 175.329C170.325 175.563 165.267 171.923 159.208 167.2C153.148 162.477 148.384 158.461 148.564 158.229C148.745 157.997 153.803 161.637 159.864 166.36C165.921 171.081 170.687 175.099 170.507 175.329Z" fill="#DADBD8"/>
<path id="path34" d="M169.143 226.141C169.039 226.252 167.62 225.091 165.361 223.189C163.103 221.285 159.989 218.655 156.501 215.811C153.009 212.967 149.804 210.449 147.484 208.62C145.165 206.791 143.743 205.636 143.831 205.512C143.912 205.396 145.489 206.335 147.931 208.015C150.372 209.693 153.667 212.128 157.173 214.985C160.677 217.843 163.728 220.577 165.865 222.629C168.003 224.681 169.24 226.036 169.143 226.141Z" fill="#DADBD8"/>
<path id="path36" d="M195.444 194.732C195.673 194.917 190.064 202.279 182.916 211.173C175.765 220.071 169.787 227.133 169.557 226.949C169.327 226.764 174.936 219.404 182.087 210.507C189.233 201.612 195.215 194.548 195.444 194.732Z" fill="#DADBD8"/>
<path id="path38" d="M73.8979 138.599L34.3479 218.381L46.1568 218.829L12.6453 282.227H30.2464L2.78802 338.551H147.451L122.478 282.227L138.671 281.521L106.284 218.157L118.254 217.453L73.8979 138.599" fill="#E7E8E5"/>
<path id="path40" d="M80.5855 231.147C80.812 231.149 80.5011 279.319 79.8907 338.723C79.2803 398.147 78.6016 446.301 78.3751 446.299C78.1495 446.296 78.4604 398.137 79.0703 338.715C79.6807 279.311 80.3588 231.145 80.5855 231.147" fill="#DADBD8"/>
<path id="path42" d="M99.3958 251.657C99.575 251.796 95.6322 257.211 90.5906 263.749C85.5469 270.291 81.3145 275.48 81.1349 275.341C80.9557 275.204 84.8978 269.789 89.9412 263.248C94.9833 256.709 99.2161 251.519 99.3958 251.657Z" fill="#DADBD8"/>
<path id="path44" d="M80.2126 273.645C80.073 273.824 76.1766 271.02 71.5104 267.384C66.8432 263.745 63.1735 260.652 63.3126 260.474C63.4516 260.295 67.3474 263.099 72.0146 266.736C76.6807 270.374 80.3511 273.467 80.2126 273.645" fill="#DADBD8"/>
<path id="path46" d="M79.1626 312.781C79.0823 312.865 77.9896 311.972 76.2495 310.507C74.5094 309.041 72.112 307.013 69.4246 304.824C66.736 302.633 64.2667 300.693 62.4803 299.285C60.6938 297.877 59.5984 296.988 59.6656 296.892C59.7292 296.803 60.9443 297.525 62.8246 298.819C64.7047 300.112 67.2418 301.988 69.9427 304.188C72.6422 306.389 74.9912 308.495 76.637 310.075C78.2834 311.656 79.237 312.7 79.1626 312.781" fill="#DADBD8"/>
<path id="path48" d="M99.4193 288.589C99.5959 288.731 95.2755 294.4 89.7703 301.252C84.2631 308.105 79.6573 313.544 79.4807 313.401C79.3041 313.26 83.624 307.592 89.1312 300.737C94.6364 293.888 99.2432 288.448 99.4193 288.589" fill="#DADBD8"/>
</g>
<g id="Ground">
<path id="path50" d="M760.409 448.083C708.308 487.123 638.395 492.671 573.517 487.211C508.641 481.751 444.164 466.817 379.173 470.676C342.365 472.863 306.025 481.067 269.157 481.717C232.291 482.365 193.173 474.271 166.515 448.794L760.409 448.083Z" fill="#F3F2F1"/>
<path id="path58" d="M913.397 447.27C913.397 447.461 708.911 447.616 456.721 447.616C204.444 447.616 0 447.461 0 447.27C0 447.077 204.444 446.923 456.721 446.923C708.911 446.923 913.397 447.077 913.397 447.27Z" fill="#17282F"/>
<path id="path52" d="M269.967 74.5788H446.027C446.027 74.5788 430.457 46.2468 385.139 50.3708C341.857 54.3081 339.656 36.4321 317.649 34.2321C295.641 32.0308 277.303 48.9028 269.967 74.5788Z" fill="#E7E8E5"/>
<path id="path54" d="M426.749 123.04H522.747C522.747 123.04 514.257 107.592 489.548 109.84C465.948 111.987 464.748 102.24 452.748 101.04C440.748 99.8401 430.749 109.04 426.749 123.04Z" fill="#F3F2F1"/>
<path id="path56" d="M526.671 33.1521H622.668C622.668 33.1521 614.177 17.7041 589.468 19.9534C565.868 22.1001 564.669 12.3534 552.669 11.1534C540.669 9.95344 530.671 19.1534 526.671 33.1521" fill="#FAFAF9"/>
</g>
<g id="car">
<path id="path60" d="M853.948 315.809C866.905 329.909 867.801 351.56 855.527 366.26C850.257 372.571 843.555 377.746 835.764 381.255L770.241 410.776L723.959 417.937L118.275 414.092L80.3245 406.667C62.0251 403.087 48.9109 386.923 49.1797 368.279L49.5599 341.909C49.6188 337.859 52.2828 334.308 56.1552 333.117L58.8417 332.292C58.8417 332.292 61.0869 306.439 76.6869 300.581C133.529 276.087 171.165 268.224 266.32 264.248L346.687 216.209C346.687 216.209 379.125 195.476 409.363 192.761C439.599 190.048 508.008 190.007 539.368 191.812C576.184 193.929 622.896 210.683 648.948 223.6C669.349 233.716 718.455 258.719 718.455 258.719L746.233 263.373C750.411 263.569 827.125 268.248 835.941 269.6C841.121 270.393 847.693 274.299 849.895 281.583C852.097 288.867 853.948 315.603 853.948 315.603V315.809" fill="#F03D5F"/>
<path id="path62" d="M619.429 224.999C606.337 218.452 571.215 209.424 551.576 205.741C531.939 202.059 492.021 201.552 476.064 201.96C460.109 202.369 415.805 203.128 392.445 209.763C380.429 213.176 361.124 223.173 349.737 231.551C345.787 234.456 328.62 247.908 324.784 250.963L295.052 278.712L660.367 267.181C660.367 267.181 662.471 254.452 655.9 247.113C649.331 239.775 619.429 224.999 619.429 224.999" fill="#17282F"/>
<path id="path64" d="M77.539 330.725L59.0593 330.459C59.7776 325.477 62.2208 312.224 70.1166 304.801L94.5844 305.152C99.0478 305.217 101.741 310.117 99.4026 313.92L94.9516 321.159C91.239 327.192 84.624 330.828 77.539 330.725" fill="#FAFAF9"/>
<path id="path66" d="M79.7776 329.617C81.6978 321.473 84.1193 310.783 90.9844 305.1L94.5844 305.152C99.0479 305.217 101.741 310.117 99.4027 313.92L94.9505 321.157C91.5907 326.621 85.8448 330.087 79.5303 330.624C79.6131 330.287 79.6964 329.96 79.7776 329.617Z" fill="#DADBD8"/>
<path id="path68" d="M259.093 415.212L168.364 414.601C168.365 414.539 168.367 414.473 168.368 414.411L259.14 414.987C259.124 415.061 259.109 415.137 259.093 415.212ZM168.027 414.599L118.898 414.268C118.886 414.211 118.875 414.153 118.863 414.096L168.027 414.408C168.027 414.471 168.027 414.536 168.027 414.599Z" fill="#3E3F42"/>
<path id="path70" d="M168.364 414.601L168.027 414.599C168.027 414.536 168.027 414.471 168.027 414.408L168.368 414.411C168.367 414.473 168.365 414.539 168.364 414.601Z" fill="#353638"/>
<path id="path72" d="M259.14 414.987L168.368 414.411L168.027 414.408L118.863 414.096C116.386 402.243 115.894 389.771 117.669 377.6C117.73 377.183 117.793 376.77 117.858 376.356C118.499 377.141 118.846 377.584 118.909 377.584C118.911 377.584 118.914 377.584 118.915 377.583C118.94 377.565 118.806 377.337 118.528 376.912C118.361 376.676 118.167 376.361 117.916 375.996C124.325 336.608 152.612 315.161 186.929 315.161C187.324 315.161 187.725 315.164 188.121 315.169C228.703 315.755 255.572 345.281 260.352 386.306C261.495 396.113 261.005 405.789 259.14 414.987" fill="#440D17"/>
<path id="path74" d="M641.312 417.553L624.443 417.44C624.436 417.395 624.429 417.351 624.423 417.306L641.225 417.412C641.253 417.459 641.283 417.507 641.312 417.553ZM744.725 414.891C744.757 414.829 744.789 414.77 744.823 414.71L770.083 410.8C769.983 410.875 769.885 410.946 769.793 411.012L744.725 414.891" fill="#3E3F42"/>
<path id="path76" d="M641.225 417.412L624.423 417.306C623.083 407.78 623.633 396.977 623.799 385.513C624.339 348.105 654.945 318.043 692.235 318.043C692.567 318.043 692.903 318.045 693.236 318.051C717.364 318.399 739.247 330.779 753.42 351.328C752.401 351.913 751.832 352.184 751.859 352.237C751.86 352.24 751.863 352.241 751.868 352.241C751.929 352.241 752.291 352.089 752.927 351.799C753.113 351.72 753.32 351.624 753.547 351.511C763.568 366.123 769.703 384.841 770.003 406.289C770.023 407.813 770.136 409.276 770.199 410.713C770.159 410.743 770.12 410.772 770.083 410.8L744.823 414.71C749.207 406.556 751.749 397.259 751.892 387.363C752.368 354.424 726.051 327.336 693.111 326.86C692.819 326.856 692.523 326.853 692.232 326.853C659.689 326.853 633.079 352.995 632.608 385.643C632.604 385.932 632.601 386.222 632.601 386.509C632.599 397.807 635.748 408.389 641.225 417.412" fill="#440D17"/>
<path id="path78" d="M770.084 410.967C770.124 410.939 770.164 410.911 770.205 410.883C770.207 410.904 770.207 410.925 770.208 410.948L770.084 410.967" fill="#3E3F42"/>
<path id="path80" d="M632.608 385.643C632.132 418.582 658.451 445.67 691.391 446.144C724.329 446.618 751.417 420.301 751.892 387.363C752.368 354.424 726.051 327.336 693.111 326.86C660.172 326.385 633.083 352.703 632.608 385.643" fill="#17282F"/>
<path id="path82" d="M632.617 385.488L632.608 385.643C632.132 418.582 658.451 445.67 691.391 446.144C724.329 446.618 751.417 420.301 751.892 387.363L751.888 387.21L632.617 385.488" fill="#17282F"/>
<path id="path84" d="M650.377 385.897C650.044 409.024 668.52 428.043 691.645 428.376C714.772 428.71 733.789 410.232 734.123 387.107C734.456 363.982 715.98 344.963 692.853 344.629C669.729 344.296 650.712 362.773 650.377 385.897Z" fill="#FAFAF9"/>
<path id="path86" d="M692.853 344.629C669.729 344.296 650.712 362.773 650.377 385.897L734.123 387.107C734.456 363.982 715.98 344.963 692.853 344.629" fill="#DADBD8"/>
<path id="path88" d="M666.743 386.135C666.54 400.223 677.795 411.806 691.883 412.009C705.969 412.212 717.555 400.958 717.757 386.871C717.96 372.784 706.705 361.199 692.619 360.996C678.531 360.792 666.948 372.048 666.743 386.135" fill="#17282F"/>
<path id="path90" d="M129.681 387.182C129.206 420.12 155.523 447.208 188.463 447.683C221.403 448.159 248.491 421.841 248.965 388.901C249.44 355.963 223.123 328.875 190.183 328.399C157.244 327.924 130.156 354.241 129.681 387.182" fill="#17282F"/>
<path id="path92" d="M129.691 387.027L129.681 387.182C129.206 420.12 155.523 447.208 188.463 447.683C221.403 448.159 248.491 421.841 248.965 388.901L248.96 388.748L129.691 387.027" fill="#17282F"/>
<path id="path94" d="M147.451 387.437C147.117 410.564 165.593 429.582 188.719 429.915C211.845 430.248 230.863 411.772 231.196 388.646C231.529 365.52 213.053 346.503 189.927 346.169C166.801 345.836 147.784 364.312 147.451 387.437" fill="#FAFAF9"/>
<path id="path96" d="M189.927 346.169C166.801 345.836 147.784 364.312 147.451 387.437L231.196 388.646C231.529 365.52 213.053 346.503 189.927 346.169Z" fill="#DADBD8"/>
<path id="path98" d="M163.816 387.675C163.613 401.761 174.868 413.344 188.955 413.548C203.041 413.752 214.627 402.497 214.831 388.41C215.033 374.323 203.777 362.737 189.691 362.535C175.604 362.332 164.02 373.587 163.816 387.675Z" fill="#17282F"/>
<path id="path100" d="M66.451 386.365C66.4286 386.365 66.4073 386.364 66.3849 386.364C62.3109 386.306 59.0849 380.841 59.1812 374.159C59.277 367.512 62.6224 362.164 66.6666 362.164C66.689 362.164 66.7114 362.164 66.7338 362.165C70.8078 362.224 74.0333 367.688 73.9369 374.371C73.8412 381.016 70.4953 386.365 66.451 386.365" fill="#9C2438"/>
<path id="path102" d="M853.948 315.809C853.948 315.839 853.553 315.872 852.797 315.907C851.957 315.937 850.863 315.975 849.499 316.023C846.633 316.096 842.488 316.183 837.369 316.392C832.249 316.564 826.159 316.88 819.413 317.425C812.681 318.032 805.264 318.825 797.691 320.627C793.923 321.573 790.289 322.719 787.004 324.317C783.705 325.896 780.837 327.971 778.211 330.092C772.871 334.232 768.849 338.841 765.191 342.447C761.572 346.093 758.299 348.72 755.84 350.223C754.608 350.967 753.624 351.503 752.927 351.799C752.237 352.113 751.872 352.265 751.859 352.237C751.817 352.153 753.28 351.519 755.66 349.944C758.041 348.369 761.215 345.707 764.763 342.021C768.344 338.389 772.349 333.699 777.719 329.48C780.344 327.333 783.272 325.188 786.637 323.567C789.989 321.923 793.676 320.756 797.488 319.799C805.141 317.979 812.592 317.209 819.349 316.643C826.119 316.137 832.224 315.887 837.349 315.789C842.477 315.657 846.627 315.663 849.496 315.691C850.86 315.709 851.956 315.725 852.796 315.735C853.552 315.755 853.948 315.78 853.948 315.809" fill="#17282F"/>
<path id="path104" d="M621.101 417.059C621.039 417.059 620.973 417.059 620.908 417.059C618.716 416.963 615.309 415.997 612.279 412.965C609.144 410.043 607.113 404.863 606.883 398.875C606.727 395.875 606.903 392.668 607.215 389.295C607.497 385.917 607.921 382.358 608.485 378.637C609.659 371.211 611.452 363.106 614.64 354.823C616.243 350.689 618.179 346.516 620.567 342.432C622.969 338.357 625.863 334.404 629.261 330.741C636.016 323.348 644.98 317.465 654.936 313.18C664.915 308.916 675.871 305.935 687.327 304.739C690.572 304.393 693.82 304.22 697.041 304.22C705.173 304.22 713.153 305.329 720.607 307.6C731.039 310.743 740.199 316.319 747.696 322.876C754.515 328.829 759.972 335.633 764.239 342.561C764.065 342.739 763.893 342.912 763.721 343.084C759.452 336.175 753.995 329.392 747.179 323.467C739.739 316.988 730.673 311.493 720.363 308.397C713.004 306.164 705.116 305.069 697.069 305.069C693.868 305.069 690.643 305.243 687.413 305.587C676.057 306.771 665.165 309.729 655.267 313.947C645.391 318.187 636.521 323.992 629.836 331.277C623.059 338.491 618.483 346.899 615.299 355.077C612.108 363.287 610.287 371.34 609.08 378.732C608.501 382.435 608.057 385.979 607.755 389.344C607.423 392.706 607.228 395.887 607.359 398.851C607.547 404.773 609.483 409.832 612.512 412.731C615.448 415.736 618.764 416.737 620.919 416.887C621.113 416.895 621.3 416.897 621.479 416.897C622.316 416.897 622.965 416.817 623.424 416.736C623.883 416.655 624.151 416.575 624.227 416.575C624.241 416.575 624.248 416.577 624.249 416.583C624.249 416.583 623.975 416.677 623.424 416.823C622.904 416.952 622.123 417.059 621.101 417.059Z" fill="#F68AA6"/>
<path id="path106" d="M768.288 412.006C768.288 412.006 768.527 411.835 769.008 411.54C769.228 411.403 769.491 411.228 769.793 411.012L770.084 410.967C768.959 411.74 768.288 412.006 768.288 412.006V412.006ZM770.205 410.883C770.204 410.849 770.203 410.815 770.201 410.782L770.241 410.776L770.544 410.639C770.427 410.725 770.315 410.806 770.205 410.883" fill="white"/>
<path id="path108" d="M770.201 410.782C770.2 410.759 770.199 410.736 770.199 410.713C770.453 410.52 770.731 410.303 771.025 410.058C772.683 408.632 774.929 406.156 776.541 402.285C778.205 398.451 778.969 393.263 778.469 387.341C777.957 381.424 776.605 374.735 774.516 367.547C772.388 360.37 769.333 352.693 764.917 345.075C764.628 344.58 764.333 344.085 764.032 343.591C764.205 343.423 764.38 343.252 764.556 343.08C764.887 343.627 765.211 344.173 765.528 344.721C769.952 352.412 772.992 360.151 775.095 367.377C777.157 374.62 778.473 381.329 778.945 387.307C779.405 393.284 778.581 398.547 776.845 402.416C775.165 406.32 772.844 408.794 771.136 410.188C770.929 410.352 770.732 410.501 770.544 410.639L770.241 410.776L770.201 410.782Z" fill="#F68AA6"/>
<path id="path110" d="M769.793 411.012C769.885 410.946 769.983 410.875 770.083 410.8L770.201 410.782C770.203 410.815 770.204 410.849 770.205 410.883C770.164 410.911 770.124 410.939 770.084 410.967L769.793 411.012" fill="#999B9B"/>
<path id="path112" d="M770.083 410.8C770.12 410.772 770.159 410.743 770.199 410.713C770.199 410.736 770.2 410.759 770.201 410.782L770.083 410.8" fill="#9F7C82"/>
<path id="path114" d="M764.032 343.591C763.929 343.421 763.827 343.253 763.721 343.084C763.893 342.912 764.065 342.739 764.239 342.561C764.345 342.733 764.451 342.907 764.556 343.08C764.38 343.252 764.205 343.423 764.032 343.591Z" fill="#849193"/>
<path id="path116" d="M118.915 377.583C118.854 377.627 118.221 376.771 116.989 375.308C115.763 373.841 113.844 371.832 111.203 369.673C105.969 365.312 97.4088 360.809 87.1839 358.699C76.95 356.589 67.3948 356.76 60.5615 356.994C57.1344 357.122 54.3599 357.287 52.4427 357.388C50.5251 357.491 49.462 357.528 49.4568 357.467C49.4536 357.439 49.7161 357.388 50.2177 357.317C50.8197 357.247 51.5443 357.161 52.4161 357.058C54.3276 356.853 57.0984 356.599 60.5328 356.392C67.3755 356.006 76.9989 355.731 87.3588 357.864C97.7177 360.001 106.382 364.668 111.587 369.21C114.216 371.458 116.09 373.556 117.246 375.1C117.858 375.846 118.236 376.499 118.528 376.912C118.806 377.337 118.94 377.565 118.915 377.583" fill="#17282F"/>
<path id="path118" d="M118.554 333.185C118.551 333.42 104.311 333.405 86.7521 333.153C69.1875 332.9 54.9568 332.504 54.9599 332.268C54.9631 332.032 69.2 332.048 86.7645 332.3C104.323 332.555 118.557 332.951 118.554 333.185Z" fill="#17282F"/>
<path id="path120" d="M279.945 409.058C279.945 409.058 279.915 408.78 279.896 408.24C279.881 407.667 279.863 406.871 279.837 405.847C279.835 404.795 279.773 403.495 279.681 401.959C279.621 400.423 279.495 398.653 279.297 396.667C278.609 388.727 276.756 377.22 272.051 363.735C269.708 356.997 266.584 349.808 262.579 342.44C258.579 335.081 253.764 327.441 247.46 320.447C241.197 313.433 233.065 307.468 223.591 303.565C214.16 299.579 203.587 297.48 192.743 297.22C192.345 297.215 191.948 297.211 191.552 297.211C186.527 297.211 181.568 297.649 176.72 298.373C171.508 299.277 166.437 300.527 161.585 302.172C156.776 303.913 152.091 305.796 147.792 308.215L146.163 309.075L144.595 310.024C143.553 310.657 142.517 311.285 141.488 311.911C140.499 312.597 139.513 313.28 138.535 313.957L137.072 314.973L135.683 316.071C128.247 321.839 122.109 328.493 117.436 335.441C112.718 342.363 109.293 349.443 106.885 356.143C105.892 358.901 105.071 361.596 104.393 364.203C104.227 364.109 104.061 364.016 103.893 363.924C104.553 361.341 105.351 358.673 106.318 355.941C108.705 349.184 112.121 342.037 116.853 335.043C117.252 334.444 117.663 333.847 118.084 333.252C118.393 333.233 118.554 333.211 118.554 333.185C118.555 333.164 118.427 333.14 118.182 333.115C122.682 326.793 128.399 320.752 135.201 315.452L136.601 314.341L138.075 313.312C139.061 312.625 140.053 311.935 141.052 311.24C142.089 310.608 143.133 309.971 144.183 309.331L145.763 308.369L147.405 307.499C151.739 305.052 156.464 303.144 161.315 301.383C166.208 299.717 171.324 298.451 176.584 297.536C181.479 296.8 186.488 296.359 191.565 296.359C191.961 296.359 192.359 296.361 192.757 296.367C203.709 296.629 214.384 298.755 223.915 302.796C233.487 306.748 241.735 312.82 248.043 319.92C254.393 327.001 259.208 334.697 263.2 342.103C267.197 349.521 270.304 356.758 272.62 363.537C277.272 377.106 279.04 388.67 279.628 396.637C280.231 404.625 279.945 409.058 279.945 409.058V409.058ZM102.498 401.625C102.498 401.625 102.431 401.358 102.34 400.827C102.248 400.259 102.122 399.472 101.958 398.46C101.797 397.419 101.568 396.134 101.47 394.595C101.376 393.058 101.097 391.291 101.111 389.285C101.067 387.284 100.98 385.056 101.139 382.62C101.174 380.18 101.493 377.549 101.785 374.716C102.218 371.579 102.831 368.213 103.703 364.68C103.87 364.77 104.036 364.86 104.201 364.952C103.33 368.408 102.707 371.704 102.258 374.78C101.945 377.595 101.604 380.211 101.545 382.64C101.362 385.064 101.425 387.282 101.442 389.276C101.403 391.275 101.655 393.036 101.723 394.571C101.793 396.109 101.995 397.395 102.129 398.437C102.256 399.452 102.354 400.241 102.426 400.812C102.488 401.348 102.498 401.625 102.498 401.625" fill="#F68AA6"/>
<path id="path122" d="M104.201 364.952C104.036 364.86 103.87 364.77 103.703 364.68C103.765 364.428 103.829 364.176 103.893 363.924C104.061 364.016 104.227 364.109 104.393 364.203C104.327 364.453 104.264 364.703 104.201 364.952Z" fill="#849193"/>
<path id="path124" d="M118.084 333.252C118.117 333.207 118.149 333.161 118.182 333.115C118.427 333.14 118.555 333.164 118.554 333.185C118.554 333.211 118.393 333.233 118.084 333.252Z" fill="#849193"/>
<path id="path126" d="M746.333 264.192C746.363 264.197 746.34 264.497 746.273 265.065C746.185 265.728 746.079 266.547 745.948 267.543C745.661 269.692 745.213 272.8 744.928 276.656C744.657 280.501 744.568 285.141 745.545 290.129C746.521 295.099 748.94 300.325 753.048 304.512C757.121 308.727 762.069 311.585 766.76 313.511C771.477 315.444 775.981 316.503 779.765 317.281C783.56 318.041 786.665 318.505 788.805 318.856C789.796 319.023 790.612 319.16 791.271 319.269C791.833 319.372 792.125 319.441 792.121 319.469C792.119 319.499 791.817 319.488 791.247 319.44C790.583 319.372 789.761 319.287 788.76 319.185C786.604 318.933 783.481 318.563 779.652 317.872C775.832 317.165 771.273 316.16 766.465 314.239C761.683 312.321 756.62 309.432 752.435 305.104C748.211 300.805 745.725 295.371 744.775 290.284C743.819 285.173 743.977 280.475 744.328 276.607C744.692 272.729 745.232 269.627 745.619 267.491C745.815 266.421 745.981 265.596 746.104 265.037C746.227 264.477 746.304 264.187 746.333 264.192" fill="#17282F"/>
<path id="path128" d="M443.301 296.837C443.303 296.807 443.555 296.781 444.037 296.765C444.519 296.756 445.235 296.733 446.159 296.876C447.063 296.997 448.284 297.469 449.055 298.635C449.84 299.732 450.193 301.5 449.407 303.095C448.653 304.673 447.032 305.912 445.099 306.437C443.163 306.98 441.031 306.864 438.888 306.744C434.563 306.499 429.829 306.229 424.863 305.948C423.616 305.868 422.32 305.752 421.113 305.243C419.927 304.737 418.837 303.824 418.408 302.54C417.972 301.248 418.391 299.868 419.107 298.903C419.812 297.908 420.861 297.2 421.933 296.84C424.109 296.099 426.225 296.256 428.132 296.213C430.059 296.219 431.851 296.275 433.484 296.34C436.637 296.476 439.241 296.588 441.208 296.672C443.031 296.735 444.041 296.763 444.043 296.825C444.043 296.855 443.791 296.887 443.311 296.92C442.829 296.955 442.119 296.987 441.205 297.004C439.376 297.049 436.729 297.005 433.467 296.944C431.836 296.915 430.051 296.895 428.137 296.92C426.233 296.985 424.14 296.885 422.201 297.577C421.232 297.916 420.376 298.52 419.768 299.377C419.161 300.211 418.864 301.307 419.2 302.276C419.523 303.251 420.416 304.031 421.444 304.461C422.485 304.9 423.687 305.02 424.916 305.097C429.881 305.403 434.611 305.693 438.935 305.96C441.083 306.104 443.121 306.229 444.916 305.755C446.688 305.307 448.177 304.197 448.865 302.829C449.583 301.457 449.325 299.917 448.659 298.897C447.999 297.832 446.967 297.377 446.096 297.203C444.332 296.877 443.293 296.928 443.301 296.837" fill="#17282F"/>
<path id="path130" d="M631.929 295.279C631.931 295.249 632.183 295.223 632.665 295.207C633.147 295.199 633.863 295.175 634.785 295.319C635.689 295.44 636.911 295.911 637.683 297.077C638.468 298.175 638.821 299.943 638.035 301.537C637.281 303.117 635.66 304.355 633.728 304.88C631.789 305.423 629.659 305.307 627.516 305.187C623.189 304.941 618.457 304.673 613.491 304.391C612.244 304.311 610.948 304.193 609.741 303.685C608.555 303.18 607.464 302.267 607.035 300.983C606.6 299.691 607.017 298.311 607.733 297.345C608.441 296.351 609.489 295.641 610.563 295.283C612.737 294.541 614.852 294.697 616.76 294.656C618.687 294.661 620.479 294.717 622.112 294.784C625.265 294.919 627.869 295.031 629.836 295.115C631.659 295.177 632.669 295.205 632.671 295.268C632.671 295.296 632.419 295.329 631.939 295.363C631.456 295.396 630.747 295.428 629.833 295.447C628.004 295.492 625.356 295.448 622.095 295.387C620.463 295.357 618.677 295.337 616.764 295.363C614.861 295.428 612.767 295.328 610.829 296.02C609.86 296.359 609.004 296.963 608.396 297.82C607.789 298.653 607.492 299.749 607.828 300.719C608.149 301.693 609.044 302.473 610.071 302.904C611.115 303.343 612.315 303.463 613.544 303.54C618.508 303.844 623.239 304.136 627.563 304.403C629.711 304.547 631.749 304.672 633.544 304.197C635.316 303.749 636.804 302.64 637.493 301.272C638.211 299.9 637.953 298.36 637.285 297.34C636.625 296.275 635.595 295.82 634.724 295.644C632.959 295.32 631.92 295.371 631.929 295.279" fill="#17282F"/>
<path id="path132" d="M660.367 267.181C660.367 267.181 660.312 267.439 660.18 267.936C660.041 268.447 659.841 269.183 659.579 270.151C659.033 272.117 658.231 275.008 657.188 278.773C655.068 286.331 651.969 297.384 648.032 311.431L648.008 311.513L647.931 311.549C641.847 314.388 635.523 318.387 629.587 323.785C626.568 326.429 623.777 329.543 621.047 332.876C618.348 336.244 615.88 339.973 613.572 343.955C609.02 351.96 605.405 361.128 602.865 371.079C600.368 381.028 598.737 391.784 598.736 402.976V403.291H598.428C558.948 403.303 513.201 403.317 464.669 403.332C399.729 403.306 339.792 403.282 292.131 403.263H291.884L291.853 403.017C287.525 367.646 284.788 338.52 283.141 318.251C282.313 308.116 281.745 300.193 281.375 294.808C281.201 292.124 281.068 290.068 280.977 288.668C280.893 287.281 280.869 286.565 280.869 286.565C280.869 286.565 280.949 287.277 281.061 288.663C281.171 290.063 281.331 292.115 281.539 294.795C281.98 300.191 282.628 308.1 283.456 318.224C285.199 338.483 288.015 367.592 292.407 402.951L292.131 402.706C339.792 402.687 399.729 402.663 464.669 402.636C513.201 402.651 558.948 402.665 598.428 402.676L598.12 402.992C598.137 391.701 599.789 380.937 602.315 370.939C604.884 360.948 608.533 351.74 613.128 343.701C615.456 339.703 617.949 335.957 620.672 332.576C623.427 329.229 626.244 326.107 629.287 323.453C635.275 318.04 641.649 314.04 647.772 311.211L647.672 311.329C651.683 297.301 654.84 286.265 656.997 278.72C658.081 274.965 658.915 272.083 659.481 270.123C659.765 269.161 659.981 268.429 660.131 267.921C660.28 267.428 660.367 267.181 660.367 267.181" fill="#17282F"/>
<path id="path134" d="M468.08 273.941C468.092 273.943 468.088 274.056 468.068 274.277C468.041 274.537 468.007 274.857 467.964 275.251C467.851 276.161 467.696 277.409 467.5 278.989C467.283 280.611 467.025 282.595 466.789 284.905C466.545 287.216 466.212 289.84 465.98 292.753C465.712 295.664 465.425 298.852 465.224 302.284C464.956 305.711 464.823 309.381 464.647 313.24C464.392 320.963 464.324 329.46 464.605 338.375C464.927 347.288 465.568 355.765 466.344 363.453C466.781 367.294 467.163 370.947 467.66 374.348C468.093 377.758 468.595 380.92 469.06 383.806C469.487 386.697 469.997 389.292 470.396 391.58C470.788 393.871 471.177 395.834 471.505 397.435C471.807 398.997 472.047 400.232 472.221 401.132C472.288 401.523 472.344 401.841 472.391 402.099C472.424 402.316 472.436 402.429 472.424 402.432C472.412 402.435 472.377 402.327 472.321 402.115C472.257 401.86 472.179 401.548 472.084 401.163C471.879 400.268 471.597 399.041 471.24 397.489C470.872 395.896 470.444 393.939 470.015 391.653C469.579 389.371 469.033 386.779 468.575 383.887C468.079 381.003 467.548 377.84 467.089 374.427C466.567 371.023 466.164 367.367 465.708 363.522C464.896 355.823 464.232 347.331 463.911 338.397C463.628 329.467 463.717 320.951 464.007 313.216C464.201 309.349 464.357 305.673 464.649 302.243C464.876 298.808 465.192 295.617 465.492 292.705C465.755 289.789 466.123 287.167 466.404 284.859C466.677 282.549 466.972 280.568 467.232 278.952C467.483 277.38 467.681 276.136 467.827 275.229C467.896 274.841 467.952 274.523 467.999 274.265C468.041 274.049 468.068 273.939 468.08 273.941" fill="#17282F"/>
<path id="path136" d="M282.448 270.139C278.169 273.337 271.813 274.135 266.579 273.065C261.345 271.999 257.228 269.563 254.545 264.945L266.285 264.42L282.448 270.139Z" fill="#17282F"/>
<path id="path138" d="M266.285 264.42C266.285 264.42 278.119 271.632 281.56 270.648C285.001 269.665 340.192 226.04 373.495 209.195C373.495 209.195 369.113 207.424 363.377 206.897C363.377 206.897 347.88 214.74 328.553 226.372C313.849 235.224 298.885 244.501 291.887 248.777C276.593 258.12 266.285 264.42 266.285 264.42" fill="#33535F"/>
<path id="path140" d="M304.144 273.676C304.148 273.685 304.02 273.769 303.761 273.923C303.476 274.089 303.093 274.313 302.603 274.599C301.547 275.199 300.031 276.061 298.075 277.172C294.075 279.413 288.281 282.661 280.976 286.756L280.924 286.785L280.861 286.784C270.145 286.397 256.383 286.116 240.62 286.761C232.741 287.097 224.365 287.661 215.639 288.553C206.913 289.459 197.84 290.687 188.548 292.167C172.273 294.708 156.916 297.911 142.864 300.489C128.801 303.011 115.987 304.427 105.199 305.005C94.4104 305.625 85.6588 305.465 79.625 305.289C76.6068 305.199 74.2656 305.076 72.6792 304.977C71.9104 304.929 71.3115 304.892 70.8745 304.864C70.4683 304.835 70.2604 304.801 70.2604 304.801C70.2604 304.801 70.4702 304.785 70.8776 304.792C71.315 304.804 71.9156 304.819 72.6849 304.839C74.2735 304.892 76.6145 304.971 79.6322 305.02C85.6636 305.113 94.4036 305.197 105.171 304.515C115.937 303.875 128.716 302.411 142.752 299.859C156.772 297.251 172.152 294.024 188.44 291.481C197.741 290 206.828 288.776 215.569 287.881C224.312 287 232.703 286.452 240.595 286.137C256.384 285.537 270.159 285.884 280.879 286.349L280.765 286.377C288.112 282.356 293.94 279.168 297.961 276.967C299.941 275.897 301.476 275.071 302.544 274.493C303.047 274.229 303.44 274.023 303.732 273.869C304 273.732 304.139 273.668 304.144 273.676Z" fill="#17282F"/>
<path id="path142" d="M316.727 275.049C400.565 271.305 569.68 268.189 653.519 264.447C653.519 264.447 656.287 255.237 648.395 249.483C645.516 247.384 628.109 234.217 607.779 226.461C575.879 214.293 543.34 209.437 530.329 208.373C515.396 207.152 488.08 206.053 488.08 206.053C488.08 206.053 438.065 208.048 424.108 209.311C403.548 211.169 386.283 216.76 373.495 223.088C356.015 231.739 325.605 257.212 325.605 257.212L304.224 275.049H316.727" fill="#33535F"/>
<path id="path144" d="M471.009 203.568L454.829 272.759L484.172 271.824L490.008 203.568H471.009" fill="#17282F"/>
<path id="path146" d="M597.861 220.319L595.008 267.187H599.088L601.848 221.784L597.861 220.319" fill="#17282F"/>
<path id="path148" d="M319.891 259.177C321.177 260.905 328.628 277.652 328.628 277.652L300.312 275.799L319.891 259.177" fill="#17282F"/>
<path id="path150" d="M346.461 275.984L324.873 276.585C322.025 276.545 319.787 271.487 319.877 265.287C319.957 259.744 321.884 255.06 324.415 254.256L344.911 247.751L346.461 275.984" fill="#F03D5F"/>
<path id="path152" d="M480.197 202.777C480.387 202.807 478.1 218.576 475.091 237.995C472.08 257.42 469.488 273.139 469.297 273.109C469.109 273.08 471.395 257.315 474.404 237.889C477.413 218.469 480.007 202.748 480.197 202.777Z" fill="#33535F"/>
<path id="path154" d="M320.733 258.159C320.9 258.221 319.707 261.563 317.431 265.28C315.169 269.007 312.745 271.597 312.613 271.477C312.455 271.347 314.609 268.592 316.839 264.919C319.081 261.256 320.544 258.077 320.733 258.159Z" fill="#33535F"/>
<path id="path156" d="M440.399 216.152C440.419 216.167 440.311 216.363 440.087 216.724C439.813 217.148 439.481 217.663 439.083 218.284C438.129 219.715 436.852 221.632 435.303 223.961C432.099 228.747 427.683 235.361 422.875 242.715C418.065 250.069 413.777 256.771 410.677 261.623C409.167 263.977 407.923 265.916 406.993 267.363C406.585 267.979 406.247 268.488 405.967 268.909C405.727 269.259 405.589 269.436 405.569 269.424C405.548 269.411 405.645 269.209 405.848 268.836C406.097 268.396 406.399 267.864 406.763 267.223C407.569 265.827 408.764 263.825 410.261 261.364C413.255 256.441 417.481 249.695 422.293 242.335C427.104 234.977 431.589 228.4 434.896 223.684C436.551 221.325 437.905 219.427 438.86 218.129C439.303 217.537 439.669 217.048 439.972 216.644C440.232 216.308 440.379 216.139 440.399 216.152" fill="#E7E8E5"/>
<path id="path158" d="M428.091 226.627C428.245 226.739 425.293 231.145 421.496 236.469C417.697 241.793 414.491 246.019 414.336 245.908C414.179 245.796 417.131 241.392 420.931 236.065C424.728 230.741 427.933 226.516 428.091 226.627Z" fill="#E7E8E5"/>
<path id="path160" d="M853.688 312.121C853.688 312.121 846.733 312.563 841.488 310.308C833.153 306.728 829.157 296.84 833.128 288.684L833.201 288.533C835.684 283.537 840.836 279.967 846.415 280.003H849.325C849.325 280.003 850.617 282.071 851.219 286.935C852.007 293.303 853.192 302.945 853.688 312.121" fill="#F3F2F1"/>
<path id="path162" d="M545.708 218.399C545.869 218.501 539.468 228.864 531.411 241.539C523.352 254.22 516.689 264.411 516.528 264.308C516.367 264.205 522.767 253.847 530.825 241.167C538.883 228.491 545.545 218.296 545.708 218.399Z" fill="#E7E8E5"/>
<path id="path164" d="M543.539 231.481C543.7 231.584 541.563 235.184 538.765 239.521C535.967 243.859 533.568 247.289 533.407 247.185C533.245 247.081 535.384 243.483 538.181 239.144C540.979 234.808 543.379 231.377 543.539 231.481" fill="#E7E8E5"/>
<path id="path166" d="M341.511 251.769C341.58 251.939 338.003 253.519 333.38 254.863C328.759 256.22 324.896 256.815 324.863 256.635C324.823 256.439 328.599 255.544 333.185 254.197C337.773 252.861 341.439 251.581 341.511 251.769Z" fill="#E7E8E5"/>
<path id="path168" d="M457.579 281.068C457.579 281.26 422.393 281.416 378.999 281.416C335.589 281.416 300.411 281.26 300.411 281.068C300.411 280.877 335.589 280.721 378.999 280.721C422.393 280.721 457.579 280.877 457.579 281.068Z" fill="#E7E8E5"/>
<path id="path170" d="M446.027 295.039C446.027 295.231 440.913 295.387 434.608 295.387C428.301 295.387 423.189 295.231 423.189 295.039C423.189 294.847 428.301 294.692 434.608 294.692C440.913 294.692 446.027 294.847 446.027 295.039Z" fill="#E7E8E5"/>
<path id="path172" d="M190.529 310.875C190.528 310.899 190.227 310.908 189.656 310.904C189.087 310.912 188.247 310.855 187.165 310.88C185.004 310.869 181.872 310.977 178.04 311.441C170.405 312.327 159.853 315.067 149.78 321.219C139.701 327.368 132.44 335.503 128.163 341.888C125.999 345.084 124.471 347.82 123.493 349.747C122.977 350.699 122.645 351.469 122.377 351.973C122.119 352.483 121.974 352.745 121.952 352.736C121.93 352.727 122.033 352.445 122.249 351.916C122.476 351.393 122.77 350.601 123.251 349.627C124.158 347.657 125.628 344.869 127.754 341.616C131.956 335.116 139.232 326.84 149.419 320.625C159.597 314.408 170.284 311.72 177.984 310.952C181.851 310.549 185.003 310.515 187.171 310.609C188.256 310.627 189.095 310.728 189.664 310.764C190.232 310.813 190.531 310.851 190.529 310.875Z" fill="#E7E8E5"/>
<path id="path174" d="M592.428 277.368C592.428 277.56 569.132 277.716 540.401 277.716C511.661 277.716 488.369 277.56 488.369 277.368C488.369 277.176 511.661 277.021 540.401 277.021C569.132 277.021 592.428 277.176 592.428 277.368Z" fill="#E7E8E5"/>
<path id="path176" d="M638.053 292.992C638.047 293.091 636.609 293.071 634.292 293.016C631.975 292.961 628.777 292.887 625.243 292.867C621.709 292.848 618.509 292.889 616.192 292.92C613.875 292.949 612.439 292.953 612.432 292.855C612.427 292.763 613.853 292.584 616.173 292.429C618.491 292.273 621.7 292.153 625.247 292.172C628.792 292.192 632.001 292.345 634.317 292.525C636.633 292.707 638.06 292.899 638.053 292.992" fill="#E7E8E5"/>
</g>
<g id="man">
<path id="path178" d="M722.476 172.145C717.351 172.145 713.203 167.981 713.221 162.856L713.261 152.183C713.261 152.183 705.588 150.989 705.493 143.316C705.397 135.644 706.729 118.027 706.729 118.027C715.611 114.209 725.861 115.497 733.521 121.393L731.708 163.551C731.361 168.395 727.332 172.145 722.476 172.145" fill="#C0776A"/>
<path id="path180" d="M713.248 152.072C713.248 152.072 718.097 152.467 723.251 149.229C723.251 149.229 720.888 154.751 713.231 154.06L713.248 152.072" fill="#B85549"/>
<path id="path182" d="M732.671 130.217C732.801 130.16 737.943 128.657 737.775 133.903C737.608 139.148 732.376 137.897 732.371 137.748C732.367 137.596 732.671 130.217 732.671 130.217Z" fill="#C0776A"/>
<path id="path184" d="M734.037 135.812C734.061 135.795 734.127 135.879 734.279 135.953C734.427 136.028 734.684 136.084 734.961 135.989C735.521 135.804 736.016 134.94 736.072 133.995C736.101 133.517 736.015 133.06 735.857 132.679C735.711 132.289 735.471 132.013 735.193 131.955C734.917 131.881 734.715 132.043 734.645 132.188C734.571 132.333 734.601 132.439 734.572 132.447C734.559 132.459 734.463 132.355 734.512 132.139C734.537 132.036 734.603 131.915 734.729 131.817C734.859 131.719 735.045 131.672 735.239 131.7C735.643 131.741 735.995 132.125 736.168 132.544C736.363 132.965 736.469 133.48 736.437 134.016C736.371 135.072 735.797 136.044 735.032 136.239C734.66 136.323 734.355 136.201 734.201 136.073C734.043 135.939 734.019 135.82 734.037 135.812" fill="#B85549"/>
<path id="path186" d="M709.512 129.917C709.493 130.496 709.965 130.989 710.569 131.023C711.173 131.055 711.677 130.613 711.699 130.035C711.72 129.456 711.247 128.96 710.644 128.928C710.04 128.896 709.533 129.339 709.512 129.917" fill="#17282F"/>
<path id="path188" d="M708.18 128.819C708.316 128.963 709.147 128.348 710.325 128.351C711.504 128.337 712.368 128.944 712.496 128.8C712.56 128.736 712.42 128.477 712.044 128.203C711.673 127.929 711.04 127.665 710.305 127.668C709.571 127.672 708.953 127.943 708.599 128.219C708.236 128.497 708.113 128.756 708.18 128.819" fill="#17282F"/>
<path id="path190" d="M721.06 129.917C721.04 130.495 721.512 130.989 722.117 131.023C722.72 131.055 723.225 130.613 723.245 130.035C723.267 129.456 722.792 128.96 722.189 128.928C721.587 128.896 721.08 129.339 721.06 129.917Z" fill="#17282F"/>
<path id="path192" d="M719.771 129.039C719.905 129.183 720.737 128.568 721.915 128.571C723.093 128.557 723.957 129.164 724.087 129.02C724.149 128.956 724.012 128.699 723.633 128.423C723.263 128.151 722.631 127.885 721.896 127.888C721.161 127.892 720.544 128.163 720.188 128.439C719.827 128.717 719.704 128.975 719.771 129.039" fill="#17282F"/>
<path id="path194" d="M715.491 137.784C715.497 137.716 714.764 137.591 713.576 137.439C713.275 137.407 712.991 137.347 712.94 137.141C712.868 136.924 712.995 136.6 713.14 136.249C713.423 135.52 713.72 134.757 714.031 133.956C715.267 130.692 716.163 128.008 716.029 127.96C715.897 127.911 714.788 130.517 713.553 133.781C713.255 134.587 712.971 135.353 712.7 136.088C712.585 136.429 712.391 136.819 712.544 137.269C712.624 137.495 712.845 137.657 713.039 137.709C713.231 137.768 713.4 137.772 713.551 137.781C714.744 137.845 715.487 137.851 715.491 137.784" fill="#17282F"/>
<path id="path196" d="M718.96 138.599C718.769 138.588 718.767 139.868 717.672 140.776C716.577 141.688 715.213 141.544 715.204 141.723C715.185 141.803 715.507 141.972 716.083 141.987C716.648 142.007 717.472 141.825 718.143 141.269C718.811 140.712 719.099 139.969 719.143 139.444C719.191 138.909 719.049 138.592 718.96 138.599" fill="#17282F"/>
<path id="path198" d="M719.465 124.419C719.581 124.739 720.759 124.587 722.143 124.753C723.529 124.893 724.644 125.299 724.828 125.011C724.909 124.873 724.716 124.572 724.264 124.261C723.817 123.951 723.104 123.656 722.275 123.564C721.444 123.473 720.683 123.605 720.179 123.811C719.672 124.015 719.416 124.267 719.465 124.419Z" fill="#17282F"/>
<path id="path200" d="M708.615 125.407C708.821 125.675 709.633 125.396 710.611 125.384C711.587 125.336 712.413 125.564 712.604 125.284C712.687 125.148 712.557 124.88 712.196 124.625C711.84 124.373 711.244 124.167 710.572 124.187C709.901 124.208 709.32 124.451 708.98 124.725C708.635 125.001 708.521 125.276 708.615 125.407Z" fill="#17282F"/>
<path id="path202" d="M702.991 113.183C702.908 112.232 703.263 111.211 704.036 110.652C704.811 110.093 706.009 110.128 706.639 110.847C706.279 109.565 707.327 108.088 708.655 108.003C709.905 107.924 710.973 108.869 712.181 109.201C713.363 109.524 714.629 109.244 715.765 108.787C716.899 108.331 717.96 107.699 719.111 107.279C721.508 106.403 724.249 106.513 726.569 107.579C728.891 108.644 730.76 110.651 731.66 113.04C733.337 112.516 735.244 113.368 736.279 114.789C737.313 116.211 737.579 118.077 737.373 119.823C737.233 121.003 736.893 122.143 736.496 123.265L736.504 123.56C736.424 127.78 735.948 132.735 734.148 132.761C731.009 132.809 731.757 126.899 731.757 126.899C727.907 125.411 729.341 119.643 728.38 118.768C727.416 117.893 725.403 115.859 717.341 119.98C714.212 121.579 710.051 121.529 707.779 121.013L707.577 120.972L707.531 120.963L707.464 120.936C706.74 120.748 706.041 120.467 705.396 120.06C704.668 119.597 704.004 118.972 703.693 118.165C703.384 117.359 703.5 116.351 704.133 115.763C703.539 115.017 703.072 114.133 702.991 113.183" fill="#17282F"/>
<path id="path204" d="M797.831 165.055C797.635 165.377 795.455 169.487 795.455 169.487C795.455 169.487 797.192 162.759 797.255 162.515C797.819 160.317 796.457 160.545 796.06 161.331C795.648 162.143 793.187 168.763 793.187 168.763C795.497 160.112 794.776 159.349 794.125 159.213C793.476 159.077 791.439 166.987 791.439 166.987C791.439 166.987 790.705 165.636 789.351 164.703C787.261 163.267 783.78 164.701 783.612 165.685C783.444 166.669 784.687 166.944 784.687 166.944C787.305 165.257 789.989 167.301 789.715 169.799C789.44 172.296 786.277 171.949 785.883 170.172C785.017 166.271 783.675 167.539 783.675 167.539L785.02 176.143L783.596 180.469L775.816 201.575L760.94 186.083C760.94 186.083 752.985 203.665 752.797 204.256C752.672 204.652 760.257 212.541 765.244 217.671C767.944 220.448 771.665 221.985 775.537 221.929C781.997 221.837 787.565 217.359 789.041 211.068L794.924 180.757L797.679 170.824C797.679 170.824 798.673 166.789 798.908 165.845C799.223 164.599 798.347 164.207 797.831 165.055" fill="#C0776A"/>
<path id="path206" d="M665.644 224.265C670.081 225.047 675.181 221.856 677.905 218.267L688.989 203.665L675.965 192.051L664.296 206.623L620.477 204.299L610.128 198.499C609.417 198.1 608.595 197.952 607.791 198.077L593.548 202.096L606.912 206.201L630.231 214.976L665.644 224.265" fill="#C0776A"/>
<path id="path208" d="M764.952 439.001L766.788 446.712C766.788 446.712 779.4 463.094 783.291 462.292C785.84 461.768 782.708 457.495 777.909 445.052L776.903 439.912L764.952 439.001" fill="#F03D5F"/>
<path id="path210" d="M783.804 459.873C783.804 459.873 783.791 459.963 783.704 460.106C783.617 460.246 783.456 460.447 783.173 460.6C782.897 460.759 782.507 460.87 782.052 460.847C781.593 460.825 781.097 460.629 780.624 460.324C778.837 458.964 776.623 456.844 774.268 454.399C771.925 451.941 769.979 449.559 768.631 447.794C767.959 446.906 767.432 446.179 767.077 445.67C766.936 445.459 766.804 445.264 766.676 445.076C766.588 444.939 766.544 444.864 766.551 444.859C766.557 444.855 766.615 444.918 766.717 445.047C766.856 445.227 767.001 445.412 767.156 445.612C767.627 446.218 768.163 446.906 768.769 447.685C770.149 449.422 772.113 451.777 774.447 454.227C776.787 456.66 779.004 458.815 780.721 460.176C781.616 460.834 782.599 460.812 783.129 460.515C783.677 460.232 783.779 459.848 783.804 459.873" fill="#17282F"/>
<path id="path212" d="M782.017 454.608C782.015 454.625 781.944 454.622 781.817 454.618C781.643 454.613 781.359 454.608 780.999 454.661C780.38 454.743 779.543 455.016 778.728 455.522C777.904 456.015 777.317 456.668 777.025 457.222C776.727 457.772 776.645 458.164 776.603 458.152C776.579 458.149 776.599 457.739 776.869 457.141C777.131 456.543 777.743 455.82 778.599 455.309C779.443 454.785 780.329 454.527 780.98 454.487C781.635 454.44 782.027 454.584 782.017 454.608" fill="#17282F"/>
<path id="path214" d="M770.077 450.763C770.035 450.752 770.209 450.211 770.311 449.316C770.421 448.428 770.311 447.158 769.676 445.937C769.06 444.717 768.061 443.897 767.267 443.506C766.465 443.1 765.891 443.055 765.9 443.006C765.901 442.992 766.044 442.991 766.299 443.027C766.555 443.065 766.919 443.158 767.343 443.346C768.187 443.711 769.253 444.548 769.897 445.825C770.557 447.089 770.645 448.436 770.484 449.337C770.413 449.794 770.313 450.153 770.232 450.396C770.151 450.639 770.093 450.768 770.077 450.763" fill="#17282F"/>
<path id="path216" d="M765.755 440.309C765.824 440.284 766.217 441.355 766.453 442.725C766.684 444.094 766.932 445.175 766.877 445.195C766.803 445.222 766.44 444.137 766.211 442.771C765.975 441.408 765.695 440.332 765.755 440.309" fill="#17282F"/>
<path id="path218" d="M778.133 446.139C778.128 446.213 777.413 446.191 776.569 446.391C775.725 446.58 775.092 446.913 775.055 446.849C775.017 446.799 775.623 446.349 776.513 446.148C777.403 445.94 778.145 446.077 778.133 446.139Z" fill="#17282F"/>
<path id="path220" d="M778.393 447.46C778.383 447.534 777.785 447.471 777.084 447.642C776.381 447.804 775.876 448.128 775.835 448.068C775.789 448.022 776.267 447.577 777.027 447.4C777.785 447.217 778.411 447.399 778.393 447.46Z" fill="#17282F"/>
<path id="path222" d="M779.399 449.117C779.377 449.188 778.771 448.994 778.04 449.168C777.307 449.327 776.843 449.764 776.792 449.711C776.735 449.679 777.168 449.106 777.985 448.925C778.8 448.735 779.439 449.064 779.399 449.117" fill="#17282F"/>
<path id="path224" d="M777.265 445.585C777.263 445.601 777.112 445.591 776.843 445.539C776.575 445.488 776.189 445.396 775.727 445.237C775.263 445.079 774.723 444.853 774.155 444.539C773.869 444.382 773.581 444.206 773.288 444.001C773.012 443.784 772.665 443.511 772.659 443.03C772.688 442.522 773.256 442.323 773.62 442.429C774.011 442.528 774.271 442.797 774.499 443.017C774.96 443.47 775.348 443.903 775.657 444.282C775.967 444.659 776.197 444.979 776.349 445.204C776.501 445.43 776.573 445.563 776.561 445.572C776.529 445.596 776.171 445.115 775.524 444.396C775.201 444.036 774.804 443.618 774.34 443.182C774.111 442.965 773.864 442.735 773.565 442.667C773.28 442.594 772.909 442.747 772.905 443.046C772.896 443.336 773.175 443.616 773.431 443.804C773.709 444.003 773.993 444.182 774.267 444.34C774.816 444.659 775.339 444.896 775.785 445.072C776.684 445.423 777.275 445.546 777.265 445.585" fill="#17282F"/>
<path id="path226" d="M776.603 445.427C776.585 445.425 776.581 445.287 776.588 445.04C776.597 444.792 776.612 444.435 776.668 443.992C776.727 443.552 776.823 443.02 777.063 442.468C777.189 442.195 777.337 441.917 777.561 441.661C777.761 441.428 778.153 441.123 778.569 441.341C778.959 441.585 778.952 442.034 778.919 442.347C778.867 442.68 778.767 442.977 778.643 443.253C778.396 443.803 778.052 444.227 777.743 444.548C777.429 444.868 777.143 445.091 776.939 445.234C776.735 445.376 776.612 445.439 776.603 445.427C776.576 445.392 777.031 445.077 777.613 444.429C777.896 444.101 778.212 443.683 778.435 443.161C778.545 442.901 778.633 442.612 778.677 442.317C778.715 442.032 778.673 441.682 778.451 441.56C778.223 441.424 777.933 441.606 777.74 441.824C777.545 442.043 777.393 442.311 777.272 442.563C777.032 443.079 776.92 443.589 776.84 444.018C776.697 444.884 776.644 445.43 776.603 445.427" fill="#17282F"/>
<path id="path228" d="M782.444 462.244C782.279 462.206 782.132 462.156 782.023 462.108C782.169 462.164 782.309 462.21 782.444 462.244ZM777.128 458.461C776.976 458.32 776.823 458.175 776.669 458.027C776.671 458.024 776.671 458.023 776.672 458.022C776.824 458.171 776.976 458.316 777.128 458.461V458.461ZM776.608 457.967C776.407 457.771 776.204 457.568 776.003 457.358C775.995 457.351 775.988 457.344 775.981 457.336C776.191 457.548 776.4 457.756 776.609 457.96C776.609 457.963 776.608 457.965 776.608 457.967ZM782.795 456.779C782.52 456.127 782.209 455.41 781.868 454.62C781.953 454.809 782.352 455.699 782.795 456.779ZM768.805 449.241C768.288 448.613 767.82 448.034 767.419 447.524H767.425C767.769 447.959 768.24 448.548 768.805 449.241V449.241ZM767.024 447.015H767.02C766.94 446.91 766.861 446.808 766.788 446.712C766.791 446.715 766.873 446.822 767.024 447.015" fill="#8C8F8F"/>
<path id="path230" d="M767.419 447.524C767.277 447.346 767.144 447.175 767.02 447.015H767.024C767.127 447.147 767.261 447.317 767.425 447.524H767.419Z" fill="#0C1418"/>
<path id="path232" d="M766.788 446.712L765.901 443.012C765.903 443.013 765.905 443.015 765.908 443.017L766.788 446.712" fill="#8C8F8F"/>
<path id="path234" d="M782.983 462.308C782.797 462.308 782.611 462.283 782.444 462.244C782.309 462.21 782.169 462.164 782.023 462.108C782.021 462.106 782.02 462.106 782.017 462.106C781.803 462.008 779.585 460.74 777.128 458.461C776.976 458.316 776.824 458.171 776.672 458.022C776.732 457.863 776.833 457.575 777.025 457.222C777.032 457.21 777.039 457.197 777.045 457.185C778.349 458.439 779.563 459.516 780.624 460.324C781.097 460.629 781.593 460.825 782.052 460.847C782.091 460.849 782.129 460.849 782.168 460.849C782.573 460.849 782.921 460.746 783.173 460.6C783.456 460.447 783.617 460.246 783.704 460.106C783.791 459.963 783.804 459.873 783.804 459.873C783.804 459.872 783.803 459.872 783.801 459.872C783.772 459.872 783.661 460.241 783.129 460.515C782.911 460.637 782.613 460.713 782.277 460.713C781.801 460.713 781.247 460.561 780.721 460.176C779.691 459.359 778.48 458.256 777.171 456.98C777.179 456.967 777.188 456.951 777.197 456.936C777.521 456.453 778.043 455.932 778.728 455.522C779.543 455.016 780.38 454.743 780.999 454.661C781.252 454.624 781.468 454.616 781.636 454.616C781.705 454.616 781.765 454.617 781.817 454.618C781.835 454.618 781.852 454.62 781.868 454.62C782.209 455.41 782.52 456.127 782.795 456.779C783.459 458.395 784.221 460.435 784.179 461.189C784.129 462.067 783.553 462.308 782.983 462.308V462.308ZM776.609 457.96C776.4 457.756 776.191 457.548 775.981 457.336C773.976 455.255 771.855 452.86 770.077 450.763H770.079C770.096 450.763 770.152 450.634 770.232 450.396C770.271 450.28 770.313 450.137 770.356 449.971C771.468 451.327 772.789 452.848 774.268 454.399C775.175 455.341 776.061 456.235 776.909 457.055C776.896 457.084 776.881 457.112 776.869 457.141C776.709 457.495 776.636 457.784 776.609 457.96V457.96ZM778.648 455.279C779.243 454.823 780.003 454.46 780.917 454.46C781.031 454.46 781.145 454.465 781.263 454.477C781.253 454.477 781.245 454.477 781.236 454.477C781.156 454.477 781.071 454.48 780.98 454.487C780.341 454.527 779.476 454.776 778.648 455.279V455.279ZM774.767 454.558C774.66 454.448 774.553 454.339 774.447 454.227C773.777 453.524 773.137 452.828 772.533 452.153L774.767 454.558ZM770.073 450.758C769.627 450.23 769.201 449.722 768.805 449.241C768.24 448.548 767.769 447.959 767.425 447.524C767.261 447.317 767.127 447.147 767.024 447.015C766.873 446.822 766.791 446.715 766.788 446.712L765.908 443.017C765.94 443.039 766.071 443.064 766.273 443.12C766.497 444.303 766.801 445.195 766.875 445.195C766.875 445.195 766.876 445.195 766.877 445.195C766.925 445.176 766.739 444.336 766.536 443.2C766.744 443.27 766.992 443.365 767.267 443.506C768.061 443.897 769.06 444.717 769.676 445.937C770.311 447.158 770.421 448.428 770.311 449.316C770.301 449.395 770.292 449.471 770.283 449.544C769.721 448.872 769.215 448.247 768.769 447.685C768.163 446.906 767.627 446.218 767.156 445.612C767.001 445.412 766.856 445.227 766.717 445.047C766.619 444.923 766.561 444.859 766.551 444.859C766.544 444.864 766.588 444.939 766.676 445.076C766.804 445.264 766.936 445.459 767.077 445.67C767.432 446.179 767.959 446.906 768.631 447.794C769.099 448.406 769.637 449.092 770.24 449.829C770.152 450.377 770.056 450.711 770.073 450.758" fill="#9C2438"/>
<path id="path236" d="M782.168 460.849C782.129 460.849 782.091 460.849 782.052 460.847C781.593 460.825 781.097 460.629 780.624 460.324C779.563 459.516 778.349 458.439 777.045 457.185C777.064 457.149 777.084 457.115 777.107 457.079L777.113 457.085C777.113 457.085 777.132 457.047 777.171 456.98C778.48 458.256 779.691 459.359 780.721 460.176C781.247 460.561 781.801 460.713 782.277 460.713C782.613 460.713 782.911 460.637 783.129 460.515C783.661 460.241 783.772 459.872 783.801 459.872C783.803 459.872 783.804 459.872 783.804 459.873C783.804 459.873 783.791 459.963 783.704 460.106C783.617 460.246 783.456 460.447 783.173 460.6C782.921 460.746 782.573 460.849 782.168 460.849V460.849ZM776.909 457.055C776.061 456.235 775.175 455.341 774.268 454.399C772.789 452.848 771.468 451.327 770.356 449.971C770.372 449.91 770.387 449.844 770.403 449.775C770.399 449.824 770.396 449.849 770.396 449.849L772.533 452.153C773.137 452.828 773.777 453.524 774.447 454.227C774.553 454.339 774.66 454.448 774.767 454.558L776.972 456.934C776.949 456.975 776.929 457.015 776.909 457.055V457.055ZM770.24 449.829C769.637 449.092 769.099 448.406 768.631 447.794C767.959 446.906 767.432 446.179 767.077 445.67C766.936 445.459 766.804 445.264 766.676 445.076C766.588 444.939 766.544 444.864 766.551 444.859C766.561 444.859 766.619 444.923 766.717 445.047C766.856 445.227 767.001 445.412 767.156 445.612C767.627 446.218 768.163 446.906 768.769 447.685C769.215 448.247 769.721 448.872 770.283 449.544C770.268 449.646 770.255 449.74 770.24 449.829" fill="#0C1418"/>
<path id="path238" d="M776.669 458.027C776.649 458.006 776.628 457.987 776.608 457.967C776.608 457.965 776.609 457.963 776.609 457.96C776.636 457.784 776.709 457.495 776.869 457.141C776.881 457.112 776.896 457.084 776.909 457.055C776.929 457.015 776.949 456.975 776.972 456.934L777.107 457.079C777.084 457.115 777.064 457.149 777.045 457.185C777.039 457.197 777.032 457.21 777.025 457.222C776.833 457.575 776.732 457.863 776.672 458.022C776.671 458.023 776.671 458.024 776.669 458.027V458.027ZM777.197 456.936C777.383 456.622 777.876 455.872 778.648 455.279C779.476 454.776 780.341 454.527 780.98 454.487C781.071 454.48 781.156 454.477 781.236 454.477C781.245 454.477 781.253 454.477 781.263 454.477C781.452 454.496 781.649 454.53 781.851 454.583C781.851 454.583 781.857 454.596 781.868 454.62C781.852 454.62 781.835 454.618 781.817 454.618C781.765 454.617 781.705 454.616 781.636 454.616C781.468 454.616 781.252 454.624 780.999 454.661C780.38 454.743 779.543 455.016 778.728 455.522C778.043 455.932 777.521 456.453 777.197 456.936" fill="#0C1418"/>
<path id="path240" d="M770.079 450.763H770.077C770.076 450.76 770.075 450.759 770.073 450.758C770.056 450.711 770.152 450.377 770.24 449.829C770.255 449.74 770.268 449.646 770.283 449.544C770.292 449.471 770.301 449.395 770.311 449.316C770.421 448.428 770.311 447.158 769.676 445.937C769.06 444.717 768.061 443.897 767.267 443.506C766.992 443.365 766.744 443.27 766.536 443.2C766.535 443.191 766.533 443.183 766.532 443.173C767.479 443.475 769.22 444.239 769.792 445.892C770.495 447.916 770.429 449.429 770.403 449.775C770.387 449.844 770.372 449.91 770.356 449.971C770.313 450.137 770.271 450.28 770.232 450.396C770.152 450.634 770.096 450.763 770.079 450.763ZM766.273 443.12C766.071 443.064 765.94 443.039 765.908 443.017C765.905 443.015 765.903 443.013 765.901 443.012L765.9 443.006C765.9 443.006 766.04 443.032 766.268 443.095C766.269 443.103 766.272 443.112 766.273 443.12Z" fill="#0C1418"/>
<path id="path242" d="M766.875 445.195C766.801 445.195 766.497 444.303 766.273 443.12C766.272 443.112 766.269 443.103 766.268 443.095C766.347 443.116 766.435 443.142 766.532 443.173C766.533 443.183 766.535 443.191 766.536 443.2C766.739 444.336 766.925 445.176 766.877 445.195C766.876 445.195 766.875 445.195 766.875 445.195" fill="#0C1418"/>
<path id="path244" d="M702.252 442.899L702.193 432.613L721.457 432.38L721.703 447.425L720.509 447.516C715.197 447.876 693.473 448.971 689.905 447.936C685.928 446.783 702.252 442.899 702.252 442.899" fill="#F03D5F"/>
<path id="path246" d="M721.616 442.084L721.611 441.767C721.611 441.767 721.611 441.767 721.612 441.767L721.616 442.084Z" fill="#8C8F8F"/>
<path id="path248" d="M721.68 447.151L721.668 446.996L714.755 447.142C715.051 445.612 715.905 444.194 717.124 443.222C718.293 442.291 719.715 441.752 721.197 441.752C721.335 441.752 721.472 441.758 721.611 441.767L721.616 442.084L721.68 447.151" fill="#9C2438"/>
<path id="path250" d="M707.703 448.146C712.74 447.963 717.493 447.71 719.948 447.553C720.065 447.553 720.197 447.553 720.313 447.553C717.249 447.812 713.309 448.013 709.269 448.144L707.703 448.146" fill="#8C8F8F"/>
<path id="path252" d="M703.188 448.285C704.683 448.248 706.205 448.2 707.703 448.146L709.269 448.144C707.233 448.21 705.173 448.258 703.188 448.285" fill="#858889"/>
<path id="path254" d="M719.948 447.553C720.152 447.54 720.339 447.528 720.509 447.516L721.703 447.425C721.264 447.47 720.8 447.512 720.313 447.553C720.197 447.553 720.065 447.553 719.948 447.553Z" fill="#0C1418"/>
<path id="path256" d="M690.085 447.983C689.637 447.913 689.361 447.834 689.289 447.741C689.247 447.687 689.227 447.628 689.225 447.568C689.251 447.568 689.276 447.568 689.3 447.568C689.359 447.71 689.552 447.834 689.905 447.936C689.961 447.952 690.021 447.968 690.085 447.983" fill="#8C8F8F"/>
<path id="path258" d="M689.225 447.568C689.225 447.488 689.26 447.404 689.324 447.317C689.277 447.406 689.268 447.489 689.3 447.568C689.276 447.568 689.251 447.568 689.225 447.568" fill="#0C1418"/>
<path id="path260" d="M693.06 445.48C693.613 445.289 694.051 445.152 694.212 445.103C693.817 445.227 693.432 445.353 693.06 445.48Z" fill="#0C1418"/>
<path id="path262" d="M699.108 448.316C694.968 448.316 691.573 448.211 690.085 447.983C690.021 447.968 689.961 447.952 689.905 447.936C689.552 447.834 689.359 447.71 689.3 447.568C689.268 447.489 689.277 447.406 689.324 447.317C689.781 446.696 691.747 445.936 693.06 445.48C693.432 445.353 693.817 445.227 694.212 445.103C694.256 445.088 694.279 445.082 694.279 445.082C695.401 445.113 696.013 447.541 696.013 447.541L714.755 447.142C714.741 447.215 714.728 447.287 714.717 447.359L721.68 447.151L721.703 447.425L720.509 447.516C720.339 447.528 720.152 447.54 719.948 447.553C717.493 447.71 712.74 447.963 707.703 448.146C706.205 448.2 704.683 448.248 703.188 448.285C701.779 448.306 700.407 448.316 699.108 448.316" fill="#9C2438"/>
<path id="path264" d="M714.717 447.359C714.728 447.287 714.741 447.215 714.755 447.142L721.668 446.996L721.68 447.151L714.717 447.359" fill="#54111D"/>
<path id="path266" d="M721.969 446.98C721.969 446.988 721.856 447.001 721.639 447.02C721.353 447.041 721.041 447.063 720.688 447.089C719.737 447.142 718.568 447.208 717.188 447.284C714.232 447.428 710.147 447.573 705.631 447.635C701.115 447.695 697.024 447.661 694.065 447.596C692.684 447.558 691.515 447.523 690.563 447.496C690.209 447.479 689.896 447.464 689.611 447.451C689.393 447.439 689.28 447.428 689.28 447.42C689.28 447.412 689.395 447.406 689.612 447.404C689.897 447.404 690.212 447.404 690.564 447.404C691.516 447.411 692.687 447.42 694.068 447.43C697.027 447.452 701.113 447.461 705.627 447.401C710.14 447.34 714.225 447.222 717.181 447.118C718.563 447.072 719.732 447.032 720.683 446.999C721.037 446.989 721.349 446.98 721.636 446.972C721.853 446.97 721.968 446.972 721.969 446.98" fill="#17282F"/>
<path id="path268" d="M696.023 447.84C695.952 447.849 695.887 447.013 695.347 446.176C694.824 445.33 694.097 444.911 694.137 444.851C694.151 444.792 694.98 445.146 695.545 446.052C696.12 446.951 696.081 447.852 696.023 447.84" fill="#17282F"/>
<path id="path270" d="M701.671 444.884C701.617 444.918 701.34 444.591 701.055 444.152C700.767 443.713 700.577 443.329 700.632 443.292C700.685 443.258 700.963 443.585 701.249 444.024C701.536 444.463 701.725 444.848 701.671 444.884Z" fill="#17282F"/>
<path id="path272" d="M703.22 444.039C703.176 444.087 702.871 443.889 702.535 443.595C702.199 443.3 701.961 443.023 702.004 442.975C702.047 442.925 702.353 443.124 702.688 443.418C703.024 443.713 703.263 443.991 703.22 444.039Z" fill="#17282F"/>
<path id="path274" d="M704.183 442.208C704.184 442.273 703.735 442.336 703.179 442.348C702.623 442.363 702.172 442.322 702.171 442.256C702.169 442.192 702.619 442.128 703.173 442.116C703.729 442.103 704.181 442.144 704.183 442.208Z" fill="#17282F"/>
<path id="path276" d="M704.505 440.922C704.527 440.979 704.04 441.206 703.388 441.261C702.735 441.322 702.216 441.183 702.228 441.122C702.237 441.056 702.747 441.087 703.367 441.029C703.987 440.977 704.484 440.858 704.505 440.922Z" fill="#17282F"/>
<path id="path278" d="M700.996 443.212C700.997 443.237 700.523 443.301 699.757 443.22C699.376 443.177 698.924 443.094 698.436 442.946C698.193 442.863 697.941 442.801 697.677 442.644C697.555 442.563 697.416 442.451 697.367 442.264C697.313 442.079 697.409 441.87 697.548 441.767C698.724 441.137 699.916 441.788 700.363 442.395C700.609 442.704 700.724 443.006 700.779 443.216C700.831 443.427 700.828 443.548 700.813 443.549C700.771 443.565 700.724 443.063 700.236 442.501C699.997 442.225 699.635 441.958 699.171 441.827C698.731 441.703 698.109 441.675 697.696 441.947C697.503 442.095 697.581 442.325 697.801 442.451C698.007 442.58 698.272 442.658 698.501 442.74C698.972 442.896 699.409 442.995 699.78 443.056C700.523 443.177 700.996 443.173 700.996 443.212" fill="#17282F"/>
<path id="path280" d="M700.675 443.277C700.659 443.289 700.471 442.976 700.521 442.418C700.549 442.146 700.645 441.82 700.848 441.509C701.063 441.232 701.34 440.851 701.871 440.865C702.159 440.899 702.303 441.225 702.26 441.434C702.24 441.651 702.145 441.837 702.057 441.989C701.876 442.3 701.672 442.553 701.481 442.746C701.099 443.129 700.793 443.279 700.78 443.255C700.757 443.225 701.023 443.029 701.36 442.634C701.527 442.436 701.708 442.184 701.868 441.884C702.035 441.62 702.145 441.149 701.835 441.097C701.524 441.071 701.212 441.384 701.025 441.632C700.835 441.903 700.729 442.192 700.685 442.442C700.597 442.948 700.717 443.267 700.675 443.277" fill="#17282F"/>
<path id="path282" d="M721.508 441.715C721.507 441.758 720.956 441.668 720.087 441.783C719.227 441.889 718.031 442.258 716.999 443.101C715.967 443.947 715.368 445.046 715.093 445.868C714.809 446.697 714.787 447.253 714.744 447.248C714.729 447.247 714.721 447.109 714.739 446.859C714.756 446.611 714.811 446.249 714.936 445.817C715.176 444.96 715.775 443.801 716.851 442.92C717.927 442.041 719.18 441.684 720.068 441.617C720.516 441.58 720.881 441.599 721.129 441.63C721.377 441.664 721.511 441.7 721.508 441.715" fill="#17282F"/>
<path id="path284" d="M719.411 433.723C719.475 433.722 719.572 435.492 719.627 437.676C719.683 439.863 719.676 441.636 719.612 441.637C719.548 441.639 719.451 439.87 719.395 437.683C719.34 435.497 719.345 433.724 719.411 433.723Z" fill="#17282F"/>
<path id="path286" d="M712.268 445.511C712.277 445.571 711.024 445.794 709.459 445.827C707.895 445.863 706.633 445.697 706.639 445.636C706.645 445.568 707.903 445.629 709.453 445.594C711.005 445.561 712.26 445.444 712.268 445.511Z" fill="#17282F"/>
<path id="path288" d="M716.044 445.458C716.091 445.506 715.945 445.727 715.82 446.016C715.691 446.304 715.627 446.563 715.561 446.56C715.5 446.56 715.457 446.256 715.605 445.923C715.751 445.587 716.003 445.411 716.044 445.458Z" fill="#17282F"/>
<path id="path290" d="M717.445 443.67C717.491 443.713 717.369 443.916 717.173 444.12C716.976 444.325 716.779 444.453 716.731 444.41C716.685 444.365 716.807 444.164 717.004 443.958C717.2 443.753 717.397 443.624 717.445 443.67" fill="#17282F"/>
<path id="path292" d="M719.469 442.835C719.457 442.899 719.201 442.9 718.92 443.004C718.636 443.1 718.436 443.26 718.385 443.217C718.333 443.182 718.492 442.906 718.841 442.784C719.192 442.659 719.489 442.775 719.469 442.835Z" fill="#17282F"/>
<path id="path294" d="M720.915 442.434C720.939 442.494 720.829 442.594 720.671 442.659C720.511 442.723 720.363 442.725 720.339 442.665C720.315 442.606 720.424 442.506 720.583 442.441C720.741 442.377 720.891 442.375 720.915 442.434Z" fill="#17282F"/>
<path id="path296" d="M785.419 440.375L747.325 238.637L694.371 246.703L698.135 438.465L728.135 439.096L723.153 271.801L756.896 440.375H785.419" fill="#33535F"/>
<path id="path298" d="M753.177 257.935L692.649 255.673L694.371 200.439L686.436 209.484L670.259 195.477L688.059 171.219C692.677 164.975 699.635 160.868 707.331 159.82C709.589 159.512 711.307 159.364 712.423 159.224C719.005 161.251 725.588 161.247 732.172 159.212C735.224 159.34 737.861 159.879 740.347 160.779C745.464 162.629 749.741 165.433 753.395 169.225L753.396 169.22L773.253 196.064L756.279 210.752L746.609 202.247L753.177 257.935" fill="#17282F"/>
<path id="path300" d="M695.275 179.588C695.467 179.595 695.279 188.783 694.855 200.108C694.432 211.436 693.933 220.611 693.741 220.604C693.551 220.596 693.737 211.411 694.161 200.081C694.584 188.757 695.083 179.58 695.275 179.588" fill="#33535F"/>
<path id="path302" d="M744.457 183.211C744.649 183.192 745.319 188.505 745.953 195.077C746.589 201.651 746.951 206.992 746.759 207.011C746.568 207.029 745.897 201.717 745.263 195.144C744.627 188.572 744.267 183.229 744.457 183.211Z" fill="#33535F"/>
<path id="path304" d="M714.825 159.829C714.944 159.98 714.485 160.536 713.803 161.071C713.119 161.605 712.471 161.916 712.352 161.764C712.233 161.613 712.692 161.059 713.375 160.524C714.059 159.989 714.707 159.679 714.825 159.829" fill="#33535F"/>
<path id="path306" d="M717.579 160.425C717.749 160.52 717.621 161.071 717.444 161.711C717.26 162.351 717.08 162.885 716.885 162.877C716.697 162.871 716.568 162.248 716.776 161.523C716.98 160.796 717.415 160.332 717.579 160.425" fill="#33535F"/>
<path id="path308" d="M720.715 160.817C720.905 160.808 721.087 161.328 721.119 161.977C721.151 162.627 721.02 163.161 720.829 163.171C720.637 163.18 720.456 162.661 720.425 162.011C720.393 161.361 720.523 160.827 720.715 160.817Z" fill="#33535F"/>
<path id="path310" d="M724.736 160.523C724.932 160.52 725.096 161.081 725.279 161.745C725.453 162.411 725.593 162.979 725.423 163.073C725.261 163.168 724.811 162.684 724.608 161.925C724.401 161.168 724.549 160.523 724.736 160.523Z" fill="#33535F"/>
<path id="path312" d="M729.232 160.039C729.416 159.973 729.728 160.376 730.087 160.845C730.44 161.32 730.741 161.731 730.627 161.889C730.52 162.044 729.957 161.831 729.532 161.264C729.105 160.7 729.055 160.1 729.232 160.039Z" fill="#33535F"/>
<path id="path314" d="M731.593 159.36C731.697 159.2 732.156 159.312 732.616 159.611C733.075 159.909 733.363 160.283 733.259 160.443C733.153 160.604 732.696 160.492 732.236 160.192C731.777 159.893 731.489 159.52 731.593 159.36Z" fill="#33535F"/>
<path id="path316" d="M745.727 196.333C745.727 196.525 734.379 196.688 720.383 196.697C706.381 196.707 695.035 196.559 695.035 196.368C695.035 196.175 706.381 196.012 720.381 196.003C734.377 195.993 745.727 196.141 745.727 196.333" fill="#FAFAF9"/>
<path id="path318" d="M746.163 200.081C746.163 200.273 734.813 200.436 720.819 200.445C706.817 200.455 695.471 200.308 695.471 200.116C695.471 199.924 706.816 199.76 720.817 199.752C734.813 199.741 746.163 199.889 746.163 200.081" fill="#FAFAF9"/>
<path id="path320" d="M746.599 203.829C746.6 204.021 734.94 204.28 720.559 204.408C706.171 204.535 694.509 204.483 694.508 204.291C694.507 204.1 706.165 203.84 720.552 203.713C734.933 203.587 746.597 203.639 746.599 203.829Z" fill="#FAFAF9"/>
<path id="path322" d="M763.048 181.896C763.112 181.963 762.291 182.883 760.876 184.281C759.461 185.679 757.444 187.547 755.125 189.507C752.805 191.465 750.627 193.144 749.012 194.305C747.397 195.468 746.353 196.123 746.299 196.048C746.24 195.968 747.179 195.175 748.713 193.916C750.439 192.487 752.452 190.819 754.676 188.976C756.865 187.091 758.845 185.383 760.543 183.921C762.039 182.619 762.979 181.825 763.048 181.896" fill="#FAFAF9"/>
<path id="path324" d="M766.116 185.249C766.176 185.319 765.205 186.297 763.548 187.781C761.891 189.264 759.536 191.244 756.844 193.313C754.152 195.384 751.635 197.151 749.776 198.372C747.916 199.593 746.723 200.281 746.671 200.204C746.616 200.121 747.712 199.291 749.495 197.971C751.277 196.649 753.739 194.825 756.421 192.764C759.103 190.701 761.496 188.789 763.229 187.405C764.965 186.021 766.051 185.175 766.116 185.249" fill="#FAFAF9"/>
<path id="path326" d="M767.673 188.417C767.799 188.563 763.741 192.235 758.613 196.617C753.481 201.003 749.223 204.437 749.099 204.291C748.973 204.145 753.031 200.475 758.161 196.091C763.289 191.707 767.551 188.272 767.673 188.417" fill="#FAFAF9"/>
<path id="path328" d="M694.561 197.503C694.515 197.577 693.477 197.057 691.984 195.931C690.485 194.815 688.593 193.052 686.653 190.993C684.709 188.939 682.987 187.049 681.76 185.66C680.536 184.269 679.813 183.377 679.884 183.312C679.953 183.245 680.801 184.019 682.119 185.323C683.435 186.625 685.217 188.464 687.156 190.515C689.091 192.567 690.896 194.353 692.292 195.549C693.681 196.753 694.617 197.415 694.561 197.503" fill="#FAFAF9"/>
<path id="path330" d="M692.852 202.073C692.792 202.145 691.787 201.413 690.245 200.129C688.704 198.847 686.633 197.001 684.449 194.856C682.264 192.709 680.38 190.673 679.069 189.155C677.759 187.637 677.009 186.645 677.079 186.584C677.153 186.519 678.031 187.395 679.431 188.823C680.831 190.252 682.76 192.224 684.935 194.361C687.111 196.496 689.119 198.391 690.571 199.763C692.025 201.136 692.917 201.999 692.852 202.073" fill="#FAFAF9"/>
<path id="path332" d="M690.985 205.336C690.911 205.403 690.011 204.521 688.567 203.092C687.123 201.664 685.124 199.699 682.857 197.591C680.589 195.483 678.484 193.631 676.953 192.295C675.423 190.959 674.479 190.125 674.54 190.047C674.596 189.975 675.649 190.672 677.265 191.916C678.881 193.159 681.049 194.963 683.331 197.081C685.609 199.201 687.565 201.233 688.923 202.755C690.281 204.276 691.055 205.275 690.985 205.336" fill="#FAFAF9"/>
<path id="path334" d="M753.052 255.379C753.047 255.569 739.596 255.389 723.012 254.972C706.424 254.557 692.985 254.064 692.989 253.873C692.995 253.681 706.443 253.863 723.031 254.279C739.615 254.693 753.056 255.187 753.052 255.379Z" fill="#33535F"/>
</g>
<g id="plant">
<path id="path336" d="M888.164 370.615C891.673 372.216 894.212 375.534 895.451 379.187C896.687 382.84 896.729 386.806 896.224 390.628C895.244 398.025 890.891 405.431 886.244 411.268C880.104 405.703 878.847 396.172 878.512 391.296C877.985 383.592 881.709 369.344 888.164 370.615" fill="#F03D5F"/>
<path id="path338" d="M893.271 423.64C892.349 419.431 894.179 414.868 897.451 412.063C900.72 409.258 905.235 408.129 909.524 408.539C911.507 408.729 913.643 409.347 914.749 411.006C915.784 412.553 915.623 414.684 914.729 416.317C913.837 417.951 912.321 419.158 910.725 420.117C905.252 423.41 899.351 425.591 893.271 423.64" fill="#F03D5F"/>
<path id="path340" d="M884.837 446.22C884.799 446.211 884.896 445.672 885.088 444.701C885.304 443.635 885.584 442.256 885.92 440.6C886.675 437.173 887.653 432.261 890.416 427.528C893.144 422.806 896.901 419.361 900.044 417.675C901.604 416.812 902.964 416.306 903.924 416.047C904.397 415.896 904.784 415.843 905.037 415.785C905.293 415.736 905.431 415.72 905.435 415.737C905.476 415.859 903.263 416.216 900.233 418.007C897.2 419.746 893.565 423.158 890.884 427.8C888.173 432.435 887.141 437.277 886.293 440.683C885.884 442.401 885.551 443.794 885.292 444.749C885.037 445.706 884.872 446.228 884.837 446.22" fill="#17282F"/>
<path id="path342" d="M886.285 381.713C886.304 381.713 886.327 381.943 886.349 382.38C886.369 382.873 886.396 383.507 886.427 384.292C886.485 385.953 886.537 388.359 886.576 391.331C886.657 397.275 886.653 405.487 886.445 414.555C886.233 423.625 885.857 431.831 885.503 437.764C885.325 440.729 885.161 443.129 885.027 444.787C884.957 445.568 884.903 446.201 884.86 446.694C884.817 447.129 884.785 447.358 884.767 447.356C884.747 447.355 884.743 447.124 884.752 446.687C884.769 446.194 884.789 445.56 884.816 444.775C884.891 443.047 884.995 440.663 885.119 437.744C885.377 431.808 885.693 423.607 885.904 414.541C886.113 405.48 886.176 397.273 886.195 391.332C886.204 388.411 886.212 386.024 886.217 384.295C886.227 383.509 886.235 382.876 886.24 382.382C886.252 381.944 886.268 381.713 886.285 381.713" fill="#17282F"/>
<path id="path344" d="M882.385 427.949C881.133 418.952 875.24 410.729 867.124 406.653C865.059 405.616 862.345 404.911 860.603 406.431C858.855 407.951 859.187 410.748 859.988 412.923C863.315 421.971 872.585 428.488 882.227 428.556" fill="#F03D5F"/>
<path id="path346" d="M868.004 413.704C868.02 413.671 868.487 413.887 869.317 414.306C869.735 414.513 870.244 414.77 870.799 415.132C871.353 415.494 872.025 415.847 872.681 416.363C873.355 416.856 874.105 417.383 874.832 418.046C875.596 418.664 876.337 419.408 877.112 420.196C878.619 421.809 880.132 423.73 881.413 425.944C882.675 428.17 883.575 430.444 884.195 432.564C884.472 433.636 884.739 434.653 884.871 435.628C885.063 436.594 885.125 437.507 885.195 438.34C885.293 439.171 885.24 439.928 885.256 440.589C885.275 441.251 885.221 441.82 885.173 442.284C885.088 443.212 885.024 443.722 884.987 443.717C884.864 443.71 885.116 441.658 884.813 438.372C884.721 437.553 884.639 436.653 884.429 435.707C884.281 434.749 884.001 433.753 883.717 432.704C883.08 430.624 882.183 428.397 880.945 426.213C879.687 424.04 878.213 422.144 876.748 420.537C875.996 419.752 875.279 419.007 874.537 418.383C873.833 417.715 873.107 417.179 872.456 416.672C869.811 414.699 867.948 413.807 868.004 413.704" fill="#17282F"/>
</g>
<g id="hearth">
<path id="path348" d="M667.169 118.808C665.583 117.357 661.713 117.325 660.032 119.899C658.396 117.18 654.397 117.184 652.784 118.663C650.7 120.569 650.445 123.733 651.9 126.024C653.901 129.175 657.717 130.532 660.083 133.373C662.451 130.532 666.072 129.319 668.075 126.168C669.529 123.876 669.252 120.716 667.169 118.808Z" fill="#F03D5F"/>
<path id="path350" d="M686.111 146.864C686.123 146.875 685.829 146.835 685.243 146.749C684.609 146.655 683.74 146.525 682.633 146.361C680.261 145.997 676.871 145.48 672.596 144.827L672.735 144.796C669.716 146.885 665.563 148.679 660.632 148.981C655.743 149.317 650.099 148.04 645.229 144.633C640.375 141.272 636.436 135.655 635.311 129.015C634.12 122.429 635.845 114.957 640.515 109.359C645.269 103.656 652.449 100.497 659.279 100.604C666.143 100.609 672.42 103.664 676.551 107.987C680.787 112.296 682.809 117.789 683.245 122.669C683.707 127.607 682.508 131.956 680.933 135.197L680.935 135.04C682.591 138.803 683.896 141.768 684.807 143.839C685.227 144.803 685.556 145.557 685.795 146.111C686.015 146.619 686.123 146.875 686.111 146.864C686.103 146.859 686.065 146.787 686 146.652C685.921 146.489 685.828 146.295 685.712 146.055C685.448 145.497 685.087 144.735 684.624 143.763C683.676 141.747 682.319 138.859 680.596 135.195L680.561 135.117L680.599 135.037C682.105 131.821 683.233 127.545 682.744 122.713C682.276 117.939 680.268 112.591 676.116 108.409C672.065 104.212 665.952 101.267 659.276 101.276C652.632 101.187 645.671 104.264 641.049 109.803C636.515 115.243 634.831 122.491 635.973 128.9C637.052 135.356 640.863 140.837 645.58 144.136C650.312 147.479 655.811 148.763 660.603 148.472C665.429 148.212 669.521 146.497 672.519 144.479L672.584 144.435L672.659 144.448C676.853 145.195 680.181 145.785 682.509 146.2C683.636 146.403 684.519 146.563 685.165 146.68C685.447 146.733 685.672 146.775 685.86 146.811C686.017 146.84 686.103 146.859 686.111 146.864" fill="#17282F"/>
</g>
</g>
</g>
</g>
</g>
<defs>
<clipPath id="clip0">
<rect width="919.867" height="488.987" fill="white"/>
</clipPath>
</defs>
</svg>
